<svg width="1276" height="875" viewBox="0 0 1276 875" fill="none" xmlns="http://www.w3.org/2000/svg">
<path d="M1004.53 50.6127C1003.9 52.4055 1000.02 50.6127 998.358 50.5795C972.296 49.5835 945.47 50.4467 919.508 51.4427C904.037 52.0403 888.599 52.3059 873.26 54.7627L861.308 87.8631C859.349 88.0623 857.623 87.0995 855.664 87.0663C699.491 82.6507 528.545 157.882 410.22 256.353C407.265 258.81 390.964 272.123 390.698 274.215C401.256 314.885 416.03 354.525 432.862 392.938C481.168 503.195 551.121 608.107 646.239 683.073C651.65 697.581 653.277 716.073 658.855 730.183C661.046 735.695 684.983 757.242 690.992 762.753C733.389 801.929 779.371 837.021 823.726 873.906L822.497 874.305C709.252 821.118 605.635 748.975 512.642 665.709C426.919 588.918 354.875 500.937 298.502 400.408C263.708 338.39 232.965 271.99 215.07 202.934C274.598 143.108 348.733 99.7155 425.824 66.2499C575.423 1.2775 745.972 -18.7089 905.664 18.8403C939.428 26.7751 972.495 37.5319 1004.5 50.6459L1004.53 50.6127Z" fill="#CC1212"/>
<path d="M1114.03 160.937L1100.05 172.325C1099.65 173.785 1104.56 188.958 1105.69 190.418C1107.92 193.274 1126.91 204.197 1131.69 207.55C1180.43 241.812 1240.72 296.99 1273.92 346.492C1274.68 347.654 1275.94 348.55 1275.74 350.044C1202.24 283.478 1106.26 241.148 1006.59 234.741C872.861 226.175 743.016 285.271 649.093 377.434C648.429 383.012 648.495 388.855 648.628 394.466C649.989 455.255 654.305 515.612 661.078 576.103C661.145 576.667 661.609 579.821 660.248 578.593C601.584 510.002 558.889 427.533 536.844 339.785C560.183 313.458 587.706 289.853 616.026 268.903C695.108 210.438 789.562 169.303 887.237 154.43C963.099 142.876 1038.73 147.225 1113.96 160.937H1114.03Z" fill="#CC1212"/>
<path d="M174.2 426.371C192.195 456.649 213.044 485.334 234.79 513.023C326.456 629.621 440.929 730.384 570.974 802.262L640.362 836.955C573.464 823.078 507.064 806.113 440.664 789.911C424.396 787.853 396.375 792.899 382.364 789.314C372.703 786.824 348.6 773.046 338.408 767.734C203.582 697.582 95.2176 598.945 0.398403 481.118L0 478.628C1.0624 478.628 2.0916 478.429 3.0544 477.964C28.8508 465.912 55.7428 456.716 83.6308 450.673C114.175 444.033 147.043 443.336 174.2 426.371Z" fill="#CC1212"/>
</svg>
